<?xml version="1.0" standalone="no"?>
<!DOCTYPE svg PUBLIC "-//W3C//DTD SVG 20010904//EN"
 "http://www.w3.org/TR/2001/REC-SVG-20010904/DTD/svg10.dtd">
<svg version="1.0" xmlns="http://www.w3.org/2000/svg"
 width="609.000000pt" height="609.000000pt" viewBox="0 0 609.000000 609.000000"
 preserveAspectRatio="xMidYMid meet">
<metadata>
Created by potrace 1.14, written by Peter Selinger 2001-2017
</metadata>
<g transform="translate(0.000000,609.000000) scale(0.100000,-0.100000)"
fill="#000000" stroke="none">
<path d="M2760 6050 c0 -16 -7 -56 -15 -88 -8 -31 -22 -178 -31 -327 -9 -148
-20 -277 -25 -286 -13 -24 -32 -512 -33 -843 l-1 -289 -33 -16 c-173 -83 -260
-133 -321 -186 -38 -33 -73 -68 -76 -77 -3 -10 -19 -25 -36 -35 -16 -9 -29
-23 -29 -29 0 -7 -26 -47 -57 -90 -101 -141 -131 -190 -143 -234 -7 -25 -25
-70 -41 -102 -16 -32 -29 -70 -29 -85 0 -15 -4 -33 -8 -39 -15 -23 -109 -62
-177 -74 -38 -6 -88 -16 -110 -21 -22 -6 -150 -14 -285 -19 -241 -9 -406 -21
-525 -40 -33 -6 -80 -10 -105 -10 -25 0 -74 -7 -110 -16 -36 -8 -103 -22 -150
-29 -47 -8 -92 -16 -100 -18 -8 -2 39 -7 105 -11 66 -4 138 -14 160 -22 23 -7
61 -14 85 -14 25 0 65 -5 90 -11 25 -6 171 -12 325 -14 276 -2 607 -17 682
-31 49 -8 103 -41 103 -62 0 -36 98 -310 141 -394 35 -69 136 -192 187 -228
27 -19 65 -57 83 -85 18 -27 42 -61 54 -74 29 -33 128 -81 168 -81 23 0 47
-10 73 -31 45 -36 54 -47 54 -73 0 -11 7 -27 16 -37 45 -50 89 -247 74 -331
-5 -24 -4 -83 1 -133 5 -49 10 -112 10 -140 0 -27 4 -70 9 -95 6 -25 13 -89
16 -143 3 -53 9 -95 13 -92 5 2 11 60 15 127 3 68 10 151 15 186 5 34 13 146
16 250 4 103 11 206 16 230 12 54 46 102 73 102 12 1 39 9 61 20 32 15 54 18
115 14 83 -6 158 -21 179 -38 7 -5 23 -15 35 -21 28 -14 45 -66 45 -143 1 -36
8 -76 16 -92 13 -25 14 -63 10 -232 -8 -281 -6 -403 10 -548 8 -69 17 -163 20
-210 10 -148 46 -494 53 -510 8 -20 19 99 27 280 3 80 10 166 15 191 31 155
48 394 64 891 8 255 16 391 24 400 6 8 9 23 6 35 -12 44 49 120 117 146 25 9
69 38 99 63 29 24 64 51 79 58 28 15 140 129 184 187 28 37 109 196 122 239
18 62 77 168 110 200 l37 35 -7 80 -6 80 34 13 c29 10 40 10 63 -2 62 -32 131
-46 194 -39 42 4 68 2 85 -7 19 -10 34 -10 67 -2 90 23 152 32 226 32 98 0
229 11 637 54 22 2 71 11 110 20 38 9 80 16 92 16 13 0 23 4 23 9 0 9 -54 20
-130 27 -25 3 -117 14 -205 25 -152 19 -352 32 -710 45 -94 4 -166 11 -174 18
-8 6 -60 12 -120 13 -136 3 -207 11 -219 26 -6 7 -15 37 -20 67 -13 70 -65
217 -104 295 -117 231 -335 441 -572 550 -84 39 -84 40 -87 180 -1 44 -10 161
-20 260 -10 99 -19 227 -20 285 0 113 -10 165 -22 119 -4 -13 -11 -94 -17
-179 -6 -85 -15 -184 -20 -220 -5 -36 -12 -134 -16 -218 -6 -134 -9 -152 -23
-148 -41 13 -114 26 -118 22 -5 -5 64 -26 85 -26 7 0 21 -4 31 -9 16 -9 17
-18 9 -83 -5 -40 -15 -93 -23 -118 -7 -25 -17 -65 -20 -89 -4 -24 -13 -58 -20
-75 -16 -39 -7 -108 30 -226 15 -47 27 -92 27 -100 0 -18 -10 -250 -11 -266
-1 -15 -73 -41 -136 -49 -27 -3 -78 -17 -112 -31 -61 -24 -64 -24 -95 -8 -63
32 -108 77 -108 107 0 15 -6 38 -14 50 -22 34 -47 144 -52 227 -3 41 -7 111
-10 155 -5 83 8 191 32 260 17 48 18 162 3 202 -7 18 -12 169 -14 408 -2 209
-8 464 -14 568 -5 103 -8 193 -5 200 2 7 -2 32 -11 56 -8 24 -15 73 -15 110 0
36 -8 145 -17 241 -9 96 -15 201 -14 232 0 31 -3 60 -9 63 -6 4 -10 -7 -10
-25z m845 -1906 c11 -7 57 -40 102 -72 115 -81 158 -124 214 -211 27 -42 61
-94 76 -116 65 -93 122 -263 123 -363 0 -24 7 -56 16 -72 21 -35 14 -54 -28
-76 -44 -23 -186 -31 -219 -13 -23 12 -79 24 -167 36 -25 3 -48 13 -55 23 -7
10 -25 22 -41 26 -15 3 -33 16 -41 28 -18 28 -34 158 -34 286 0 168 -16 494
-25 508 -4 7 -5 20 -2 29 7 17 47 11 81 -13z m-963 -240 c-2 -208 -6 -253 -19
-273 -11 -18 -17 -53 -19 -120 -4 -158 -21 -208 -80 -232 -33 -14 -148 -27
-312 -35 -101 -6 -115 -4 -134 12 -19 18 -20 26 -14 108 4 50 14 102 23 120 9
17 20 49 24 71 22 119 42 156 178 327 57 73 113 131 158 165 76 57 173 113
188 109 6 -2 9 -92 7 -252z m1428 -930 c16 -41 11 -85 -16 -149 -14 -33 -33
-83 -43 -111 -19 -57 -56 -110 -83 -119 -9 -3 -26 -21 -38 -40 -22 -36 -94
-105 -110 -105 -6 0 -19 -9 -31 -21 -69 -69 -159 -93 -174 -46 -4 12 -9 112
-12 223 -5 172 -3 205 11 232 9 17 16 43 16 57 0 31 42 73 79 80 14 3 44 10
66 16 22 6 94 12 159 15 65 2 121 6 124 8 10 10 43 -16 52 -40z m-1516 -19
c18 -14 37 -25 43 -25 5 0 18 -9 29 -21 16 -18 20 -42 24 -158 8 -206 -7 -288
-56 -326 -16 -12 -17 -16 -5 -24 20 -13 7 -37 -25 -45 -20 -5 -34 -2 -53 14
-14 11 -59 43 -100 70 -86 58 -162 143 -181 203 -21 64 -70 158 -101 195 -44
50 -47 78 -14 112 28 29 30 29 159 33 199 6 242 1 280 -28z m744 -8 c17 -17
32 -37 32 -45 0 -7 7 -36 16 -64 14 -40 16 -75 11 -186 -5 -131 -33 -282 -56
-305 -5 -5 -7 -24 -4 -43 4 -27 0 -37 -23 -59 -15 -14 -39 -28 -53 -31 -14 -3
-50 -14 -79 -26 l-53 -20 -67 22 c-72 25 -145 79 -161 119 -12 32 -23 101 -27
166 -1 28 -8 108 -14 179 -10 97 -10 134 -1 148 6 10 11 24 11 32 0 8 13 24
29 36 17 11 40 40 53 63 21 37 28 43 68 48 25 4 99 4 165 2 117 -5 121 -6 153
-36z"/>
</g>
</svg>
